<mxfile host="app.diagrams.net" agent="Mozilla/5.0 (Windows NT 10.0; Win64; x64) AppleWebKit/537.36 (KHTML, like Gecko) Chrome/130.0.0.0 Safari/537.36 Edg/130.0.0.0" version="24.8.2">
  <diagram name="Página-1" id="ykEV2IPNLPYLhgMNXlpi">
    <mxGraphModel dx="1613" dy="511" grid="1" gridSize="10" guides="1" tooltips="1" connect="1" arrows="1" fold="1" page="1" pageScale="1" pageWidth="827" pageHeight="1169" math="0" shadow="0">
      <root>
        <mxCell id="0" />
        <mxCell id="1" parent="0" />
        <mxCell id="XQS_EbeW9drDvdqBCL3b-1" value="&lt;p style=&quot;margin:0px;margin-top:4px;text-align:center;&quot;&gt;&lt;b&gt;Usuario&lt;/b&gt;&lt;/p&gt;&lt;hr size=&quot;1&quot; style=&quot;border-style:solid;&quot;&gt;&lt;div style=&quot;height:2px;&quot;&gt;&lt;/div&gt;" style="verticalAlign=top;align=left;overflow=fill;html=1;whiteSpace=wrap;" vertex="1" parent="1">
          <mxGeometry x="100" y="60" width="210" height="580" as="geometry" />
        </mxCell>
        <mxCell id="XQS_EbeW9drDvdqBCL3b-3" value="&lt;p style=&quot;margin:0px;margin-top:4px;text-align:center;&quot;&gt;&lt;b&gt;Base de datos&lt;/b&gt;&lt;/p&gt;&lt;hr size=&quot;1&quot; style=&quot;border-style:solid;&quot;&gt;&lt;div style=&quot;height:2px;&quot;&gt;&lt;/div&gt;" style="verticalAlign=top;align=left;overflow=fill;html=1;whiteSpace=wrap;" vertex="1" parent="1">
          <mxGeometry x="310" y="60" width="210" height="580" as="geometry" />
        </mxCell>
        <mxCell id="XQS_EbeW9drDvdqBCL3b-4" value="&lt;p style=&quot;margin:0px;margin-top:4px;text-align:center;&quot;&gt;&lt;b&gt;Controlador de login&lt;/b&gt;&lt;/p&gt;&lt;hr size=&quot;1&quot; style=&quot;border-style:solid;&quot;&gt;&lt;div style=&quot;height:2px;&quot;&gt;&lt;/div&gt;" style="verticalAlign=top;align=left;overflow=fill;html=1;whiteSpace=wrap;" vertex="1" parent="1">
          <mxGeometry x="520" y="60" width="220" height="580" as="geometry" />
        </mxCell>
        <mxCell id="XQS_EbeW9drDvdqBCL3b-13" value="" style="ellipse;html=1;shape=startState;fillColor=#000000;strokeColor=#ff0000;" vertex="1" parent="1">
          <mxGeometry x="190" y="90" width="30" height="30" as="geometry" />
        </mxCell>
        <mxCell id="XQS_EbeW9drDvdqBCL3b-14" value="" style="edgeStyle=orthogonalEdgeStyle;html=1;verticalAlign=bottom;endArrow=open;endSize=8;strokeColor=#ff0000;rounded=0;" edge="1" source="XQS_EbeW9drDvdqBCL3b-13" parent="1">
          <mxGeometry relative="1" as="geometry">
            <mxPoint x="205" y="180" as="targetPoint" />
          </mxGeometry>
        </mxCell>
        <mxCell id="XQS_EbeW9drDvdqBCL3b-21" style="edgeStyle=orthogonalEdgeStyle;rounded=0;orthogonalLoop=1;jettySize=auto;html=1;entryX=0;entryY=0.25;entryDx=0;entryDy=0;" edge="1" parent="1" source="XQS_EbeW9drDvdqBCL3b-15" target="XQS_EbeW9drDvdqBCL3b-20">
          <mxGeometry relative="1" as="geometry" />
        </mxCell>
        <mxCell id="XQS_EbeW9drDvdqBCL3b-15" value="Ingresa sus datos y solicita ingresar&lt;div&gt;al sistema&lt;/div&gt;" style="html=1;whiteSpace=wrap;" vertex="1" parent="1">
          <mxGeometry x="150" y="180" width="110" height="50" as="geometry" />
        </mxCell>
        <mxCell id="XQS_EbeW9drDvdqBCL3b-28" style="edgeStyle=orthogonalEdgeStyle;rounded=0;orthogonalLoop=1;jettySize=auto;html=1;" edge="1" parent="1" source="XQS_EbeW9drDvdqBCL3b-20" target="XQS_EbeW9drDvdqBCL3b-27">
          <mxGeometry relative="1" as="geometry" />
        </mxCell>
        <mxCell id="XQS_EbeW9drDvdqBCL3b-20" value="Recibe datos de login del usuario" style="html=1;whiteSpace=wrap;" vertex="1" parent="1">
          <mxGeometry x="575" y="100" width="110" height="50" as="geometry" />
        </mxCell>
        <mxCell id="XQS_EbeW9drDvdqBCL3b-31" value="" style="edgeStyle=orthogonalEdgeStyle;rounded=0;orthogonalLoop=1;jettySize=auto;html=1;" edge="1" parent="1" source="XQS_EbeW9drDvdqBCL3b-27" target="XQS_EbeW9drDvdqBCL3b-30">
          <mxGeometry relative="1" as="geometry" />
        </mxCell>
        <mxCell id="XQS_EbeW9drDvdqBCL3b-27" value="Verifica si los datos&lt;div&gt;son validos&lt;/div&gt;" style="html=1;whiteSpace=wrap;" vertex="1" parent="1">
          <mxGeometry x="575" y="180" width="110" height="50" as="geometry" />
        </mxCell>
        <mxCell id="XQS_EbeW9drDvdqBCL3b-36" style="edgeStyle=orthogonalEdgeStyle;rounded=0;orthogonalLoop=1;jettySize=auto;html=1;" edge="1" parent="1" source="XQS_EbeW9drDvdqBCL3b-30" target="XQS_EbeW9drDvdqBCL3b-35">
          <mxGeometry relative="1" as="geometry" />
        </mxCell>
        <mxCell id="XQS_EbeW9drDvdqBCL3b-42" style="edgeStyle=orthogonalEdgeStyle;rounded=0;orthogonalLoop=1;jettySize=auto;html=1;" edge="1" parent="1" source="XQS_EbeW9drDvdqBCL3b-30" target="XQS_EbeW9drDvdqBCL3b-41">
          <mxGeometry relative="1" as="geometry">
            <Array as="points">
              <mxPoint x="630" y="370" />
            </Array>
          </mxGeometry>
        </mxCell>
        <mxCell id="XQS_EbeW9drDvdqBCL3b-30" value="¿son validos?" style="rhombus;whiteSpace=wrap;html=1;" vertex="1" parent="1">
          <mxGeometry x="590" y="260" width="80" height="60" as="geometry" />
        </mxCell>
        <mxCell id="XQS_EbeW9drDvdqBCL3b-43" style="edgeStyle=orthogonalEdgeStyle;rounded=0;orthogonalLoop=1;jettySize=auto;html=1;" edge="1" parent="1" source="XQS_EbeW9drDvdqBCL3b-35" target="XQS_EbeW9drDvdqBCL3b-15">
          <mxGeometry relative="1" as="geometry" />
        </mxCell>
        <mxCell id="XQS_EbeW9drDvdqBCL3b-35" value="El usuario debe volver a ingresar sus datos y verificar&lt;div&gt;que sean correctos&lt;/div&gt;" style="rounded=0;whiteSpace=wrap;html=1;" vertex="1" parent="1">
          <mxGeometry x="140" y="260" width="130" height="60" as="geometry" />
        </mxCell>
        <mxCell id="XQS_EbeW9drDvdqBCL3b-37" value="No" style="text;html=1;align=center;verticalAlign=middle;whiteSpace=wrap;rounded=0;" vertex="1" parent="1">
          <mxGeometry x="530" y="260" width="60" height="30" as="geometry" />
        </mxCell>
        <mxCell id="XQS_EbeW9drDvdqBCL3b-40" value="Si" style="text;html=1;align=center;verticalAlign=middle;whiteSpace=wrap;rounded=0;" vertex="1" parent="1">
          <mxGeometry x="660" y="290" width="60" height="30" as="geometry" />
        </mxCell>
        <mxCell id="XQS_EbeW9drDvdqBCL3b-49" style="edgeStyle=orthogonalEdgeStyle;rounded=0;orthogonalLoop=1;jettySize=auto;html=1;entryX=0;entryY=0.75;entryDx=0;entryDy=0;" edge="1" parent="1" source="XQS_EbeW9drDvdqBCL3b-41" target="XQS_EbeW9drDvdqBCL3b-48">
          <mxGeometry relative="1" as="geometry">
            <Array as="points">
              <mxPoint x="415" y="468" />
            </Array>
          </mxGeometry>
        </mxCell>
        <mxCell id="XQS_EbeW9drDvdqBCL3b-41" value="¿Existe en&lt;div&gt;BDD?&lt;/div&gt;" style="rhombus;whiteSpace=wrap;html=1;" vertex="1" parent="1">
          <mxGeometry x="375" y="340" width="80" height="60" as="geometry" />
        </mxCell>
        <mxCell id="XQS_EbeW9drDvdqBCL3b-46" value="&lt;p style=&quot;margin:0px;margin-top:4px;text-align:center;&quot;&gt;&lt;b&gt;Administrador&lt;/b&gt;&lt;/p&gt;&lt;hr size=&quot;1&quot; style=&quot;border-style:solid;&quot;&gt;&lt;div style=&quot;height:2px;&quot;&gt;&lt;/div&gt;" style="verticalAlign=top;align=left;overflow=fill;html=1;whiteSpace=wrap;" vertex="1" parent="1">
          <mxGeometry x="-110" y="60" width="210" height="580" as="geometry" />
        </mxCell>
        <mxCell id="XQS_EbeW9drDvdqBCL3b-61" style="edgeStyle=orthogonalEdgeStyle;rounded=0;orthogonalLoop=1;jettySize=auto;html=1;entryX=1;entryY=0.75;entryDx=0;entryDy=0;" edge="1" parent="1" source="XQS_EbeW9drDvdqBCL3b-48" target="XQS_EbeW9drDvdqBCL3b-60">
          <mxGeometry relative="1" as="geometry">
            <Array as="points">
              <mxPoint x="630" y="488" />
              <mxPoint x="418" y="488" />
            </Array>
          </mxGeometry>
        </mxCell>
        <mxCell id="XQS_EbeW9drDvdqBCL3b-48" value="Permite al usuario&lt;div&gt;el acceso al sistema&lt;/div&gt;" style="html=1;whiteSpace=wrap;" vertex="1" parent="1">
          <mxGeometry x="575" y="430" width="110" height="50" as="geometry" />
        </mxCell>
        <mxCell id="XQS_EbeW9drDvdqBCL3b-50" value="Si" style="text;html=1;align=center;verticalAlign=middle;whiteSpace=wrap;rounded=0;" vertex="1" parent="1">
          <mxGeometry x="440" y="400" width="60" height="30" as="geometry" />
        </mxCell>
        <mxCell id="XQS_EbeW9drDvdqBCL3b-57" value="" style="edgeStyle=orthogonalEdgeStyle;rounded=0;orthogonalLoop=1;jettySize=auto;html=1;" edge="1" parent="1" source="XQS_EbeW9drDvdqBCL3b-51" target="XQS_EbeW9drDvdqBCL3b-56">
          <mxGeometry relative="1" as="geometry" />
        </mxCell>
        <mxCell id="XQS_EbeW9drDvdqBCL3b-51" value="Crea el nuevo usuario" style="html=1;whiteSpace=wrap;" vertex="1" parent="1">
          <mxGeometry x="-70" y="265" width="110" height="50" as="geometry" />
        </mxCell>
        <mxCell id="XQS_EbeW9drDvdqBCL3b-53" value="No" style="text;html=1;align=center;verticalAlign=middle;whiteSpace=wrap;rounded=0;" vertex="1" parent="1">
          <mxGeometry x="315" y="330" width="60" height="30" as="geometry" />
        </mxCell>
        <mxCell id="XQS_EbeW9drDvdqBCL3b-54" style="edgeStyle=orthogonalEdgeStyle;rounded=0;orthogonalLoop=1;jettySize=auto;html=1;entryX=0.391;entryY=0.92;entryDx=0;entryDy=0;entryPerimeter=0;" edge="1" parent="1" source="XQS_EbeW9drDvdqBCL3b-41" target="XQS_EbeW9drDvdqBCL3b-51">
          <mxGeometry relative="1" as="geometry" />
        </mxCell>
        <mxCell id="XQS_EbeW9drDvdqBCL3b-59" style="edgeStyle=orthogonalEdgeStyle;rounded=0;orthogonalLoop=1;jettySize=auto;html=1;" edge="1" parent="1" source="XQS_EbeW9drDvdqBCL3b-56" target="XQS_EbeW9drDvdqBCL3b-15">
          <mxGeometry relative="1" as="geometry" />
        </mxCell>
        <mxCell id="XQS_EbeW9drDvdqBCL3b-56" value="Informa al usuario de sus datos para ingresar al sistema" style="whiteSpace=wrap;html=1;" vertex="1" parent="1">
          <mxGeometry x="-70" y="185" width="110" height="40" as="geometry" />
        </mxCell>
        <mxCell id="XQS_EbeW9drDvdqBCL3b-63" style="edgeStyle=orthogonalEdgeStyle;rounded=0;orthogonalLoop=1;jettySize=auto;html=1;" edge="1" parent="1" source="XQS_EbeW9drDvdqBCL3b-60" target="XQS_EbeW9drDvdqBCL3b-62">
          <mxGeometry relative="1" as="geometry" />
        </mxCell>
        <mxCell id="XQS_EbeW9drDvdqBCL3b-60" value="Permite al usuario&lt;div&gt;el acceso al sistema&lt;/div&gt;" style="html=1;whiteSpace=wrap;" vertex="1" parent="1">
          <mxGeometry x="150" y="450" width="110" height="50" as="geometry" />
        </mxCell>
        <mxCell id="XQS_EbeW9drDvdqBCL3b-62" value="" style="ellipse;html=1;shape=endState;fillColor=#000000;strokeColor=#ff0000;" vertex="1" parent="1">
          <mxGeometry x="190" y="555" width="30" height="30" as="geometry" />
        </mxCell>
      </root>
    </mxGraphModel>
  </diagram>
</mxfile>
